<?xml version="1.0" standalone="no"?>
<!DOCTYPE svg PUBLIC "-//W3C//DTD SVG 20010904//EN"
 "http://www.w3.org/TR/2001/REC-SVG-20010904/DTD/svg10.dtd">
<svg version="1.0" xmlns="http://www.w3.org/2000/svg"
 width="723.000000pt" height="723.000000pt" viewBox="0 0 723.000000 723.000000"
 preserveAspectRatio="xMidYMid meet">
<metadata>
Created by potrace 1.14, written by Peter Selinger 2001-2017
</metadata>
<g transform="translate(0.000000,723.000000) scale(0.100000,-0.100000)"
fill="#000000" stroke="none">
<path d="M3396 6233 c-8 -8 -19 -10 -113 -19 -35 -4 -63 -10 -63 -14 0 -5 -8
-7 -17 -5 -10 1 -22 -1 -28 -5 -5 -4 -35 -10 -65 -14 -61 -7 -78 -10 -100 -19
-8 -3 -28 -9 -45 -13 -16 -4 -32 -8 -35 -9 -78 -24 -97 -28 -107 -26 -7 1 -13
-2 -13 -8 0 -5 -18 -12 -40 -16 -22 -4 -40 -11 -40 -17 0 -6 -7 -8 -15 -5 -8
4 -17 2 -20 -2 -2 -5 -16 -12 -30 -15 -14 -4 -55 -20 -91 -36 -35 -17 -69 -30
-74 -30 -6 0 -10 -4 -10 -10 0 -5 -4 -10 -9 -10 -5 0 -20 -4 -33 -9 -13 -5
-27 -10 -33 -11 -5 -1 -22 -11 -36 -21 -14 -10 -29 -16 -33 -12 -3 3 -6 1 -6
-5 0 -6 -10 -14 -22 -17 -13 -4 -37 -18 -55 -31 -17 -13 -34 -24 -37 -24 -9 0
-120 -74 -128 -85 -5 -7 -8 -7 -8 0 0 6 -5 2 -11 -7 -5 -10 -17 -18 -24 -18
-8 0 -15 -4 -15 -9 0 -5 -9 -13 -20 -16 -11 -4 -31 -16 -43 -28 -12 -12 -40
-35 -62 -51 -22 -17 -52 -42 -68 -58 -15 -15 -29 -28 -31 -28 -10 0 -153 -150
-148 -155 3 -3 1 -5 -5 -5 -5 0 -22 -11 -37 -25 -15 -14 -24 -25 -20 -25 4 0
1 -6 -8 -12 -13 -11 -42 -45 -159 -185 -10 -13 -16 -23 -13 -23 3 0 -5 -13
-18 -28 -55 -67 -128 -181 -128 -201 0 -8 -3 -11 -6 -8 -7 7 -134 -240 -134
-260 0 -7 -5 -13 -10 -13 -6 0 -9 -3 -8 -7 1 -7 -8 -35 -29 -83 -8 -18 -6 -14
-22 -70 -7 -25 -16 -49 -21 -55 -4 -5 -10 -21 -13 -35 -3 -14 -8 -34 -11 -45
-7 -26 -27 -107 -30 -120 -1 -5 -5 -15 -8 -21 -4 -6 -8 -28 -10 -48 -1 -21 -5
-39 -9 -42 -4 -2 -6 -15 -4 -29 1 -14 -1 -25 -6 -25 -4 0 -10 -28 -12 -62 -5
-64 -12 -120 -22 -173 -8 -48 -8 -436 0 -480 5 -22 9 -53 10 -70 1 -16 5 -37
8 -45 5 -13 12 -71 19 -152 1 -16 5 -28 8 -28 4 0 7 -17 8 -37 1 -20 6 -41 11
-46 5 -5 7 -16 4 -23 -3 -8 -1 -14 5 -14 5 0 12 -15 15 -32 3 -18 7 -40 10
-48 4 -14 7 -23 25 -70 3 -8 4 -19 3 -24 -1 -5 2 -12 6 -15 5 -3 13 -24 20
-46 13 -49 36 -108 44 -115 3 -3 15 -27 26 -55 12 -27 37 -79 57 -115 19 -36
47 -90 63 -120 15 -30 33 -60 38 -67 6 -7 16 -19 22 -27 7 -8 13 -18 13 -21 0
-8 65 -99 124 -175 69 -89 65 -84 123 -145 29 -30 51 -55 49 -55 -6 0 89 -92
156 -150 34 -30 73 -65 85 -77 13 -12 23 -20 23 -17 0 3 6 -1 14 -8 14 -14 22
-19 101 -70 28 -18 59 -41 69 -50 11 -10 26 -18 33 -18 7 0 13 -3 13 -7 0 -5
30 -24 68 -43 37 -19 69 -38 72 -42 3 -3 18 -10 33 -13 15 -4 27 -11 27 -16 0
-5 3 -9 8 -8 15 2 52 -14 52 -22 0 -5 3 -9 8 -8 16 2 52 -14 52 -24 0 -6 3 -8
6 -5 3 4 34 -7 69 -23 36 -16 70 -29 77 -29 7 -1 31 -9 53 -20 22 -11 47 -19
56 -20 8 0 19 -4 25 -9 9 -8 123 -44 174 -55 14 -3 43 -10 65 -16 61 -16 112
-26 190 -36 28 -3 55 -10 61 -15 6 -5 21 -7 33 -4 12 2 33 0 46 -5 13 -5 64
-10 112 -11 48 -1 94 -6 101 -11 8 -7 12 -7 12 0 0 7 10 8 28 3 15 -3 45 -6
67 -4 22 1 101 5 175 9 74 4 137 10 140 13 3 4 24 6 48 6 23 -1 42 2 42 5 0 6
80 18 140 22 8 0 20 4 25 8 6 4 30 11 55 15 25 4 50 11 56 16 7 6 16 9 20 8 9
-2 59 9 84 18 8 4 17 7 20 8 5 2 16 6 55 21 11 4 22 8 25 9 47 12 149 54 160
65 3 3 12 6 20 8 8 2 39 14 68 27 29 14 57 25 62 25 6 0 10 5 10 10 0 6 6 10
14 10 16 0 73 29 94 47 16 16 49 17 54 3 2 -6 12 -12 23 -14 11 -2 36 -11 55
-19 44 -19 72 -30 85 -31 6 -1 24 -5 40 -9 61 -14 101 -20 145 -20 51 0 147
10 159 17 4 3 22 8 39 11 17 3 44 10 59 17 15 6 32 10 36 9 4 -1 15 5 23 14 9
8 24 15 33 15 10 0 24 7 31 15 7 8 16 15 21 15 12 0 109 69 137 98 12 13 22
20 22 17 0 -6 20 17 87 102 30 37 98 175 118 238 22 69 27 145 10 145 -7 0
-16 7 -19 16 -4 10 -13 14 -24 10 -14 -5 -14 -3 2 9 19 15 19 15 -3 15 -16 0
-21 4 -18 14 3 8 3 17 -1 21 -4 3 -8 25 -9 48 -7 108 -47 239 -80 260 -7 4
-13 17 -13 27 0 11 -22 42 -49 69 -26 28 -46 53 -43 56 3 3 -2 5 -11 5 -10 0
-17 6 -17 13 0 6 -24 31 -54 53 -53 41 -53 42 -51 92 2 50 1 52 -34 68 -20 10
-42 17 -48 17 -7 0 -13 4 -13 9 0 4 -8 8 -18 8 -10 0 -22 3 -25 7 -21 20 -364
20 -419 -1 -26 -9 -53 -17 -55 -17 -7 1 -79 -32 -83 -38 -3 -3 -26 -17 -51
-31 -54 -29 -99 -62 -143 -106 -46 -46 -96 -104 -90 -104 3 0 0 -6 -6 -12 -40
-48 -50 -63 -50 -75 0 -7 -5 -13 -12 -13 -6 0 -9 -2 -6 -6 3 -3 -7 -32 -23
-64 -16 -33 -31 -76 -33 -95 -2 -19 -7 -39 -11 -45 -3 -5 -7 -28 -7 -50 0 -22
-4 -40 -8 -40 -20 0 7 -225 36 -296 27 -68 77 -169 86 -175 17 -11 17 -46 0
-47 -47 -6 -78 0 -89 16 -7 9 -20 27 -29 39 -9 12 -40 34 -71 49 -54 28 -74
53 -78 99 -1 11 -4 27 -8 35 -3 8 -8 31 -12 50 -8 52 -13 75 -15 75 -1 0 -3 7
-5 15 -1 8 -10 37 -19 63 -9 26 -16 54 -16 62 0 8 -5 15 -11 15 -5 0 -8 4 -4
9 3 5 1 12 -5 16 -6 4 -8 11 -5 16 4 5 1 9 -6 9 -7 0 -10 3 -7 6 6 5 -48 124
-61 134 -3 3 -19 31 -36 63 -16 31 -39 67 -50 80 -40 45 -55 77 -55 121 0 37
-4 48 -22 58 -27 14 -66 17 -90 5 -11 -5 -18 -4 -18 3 0 5 -7 10 -15 10 -8 0
-15 9 -15 20 0 11 -4 20 -10 20 -5 0 -10 6 -10 13 0 6 -16 23 -35 35 -47 33
-170 153 -178 175 -4 11 -3 16 3 12 6 -3 10 -13 10 -21 0 -8 5 -12 10 -9 6 4
8 10 6 14 -3 4 2 8 10 8 10 0 11 -4 4 -11 -5 -5 -10 -14 -10 -19 0 -5 7 -1 16
8 12 12 19 13 30 4 11 -9 14 -8 14 5 0 11 5 14 12 10 7 -5 8 -3 2 7 -5 8 -9
61 -9 119 -1 123 5 130 75 95 70 -35 133 -59 190 -72 38 -9 146 -20 154 -15 5
3 6 0 3 -6 -8 -11 249 -15 268 -3 6 3 17 6 25 6 26 1 60 16 60 26 0 5 4 8 9 6
15 -4 80 62 102 106 41 78 24 183 -38 242 -52 49 -56 51 -125 70 -5 2 -9 3
-10 5 -2 1 -52 3 -113 5 -60 3 -119 6 -130 8 -92 17 -162 49 -220 101 -22 20
-43 36 -47 36 -5 0 -8 4 -8 8 0 5 -22 32 -50 62 -27 29 -47 57 -44 61 3 5 -1
9 -8 9 -9 0 -9 3 2 10 8 5 37 7 63 4 74 -10 178 -10 222 -1 66 15 70 15 70 17
0 1 11 3 24 6 14 2 29 8 35 13 6 5 20 11 31 13 11 1 22 5 25 8 3 3 26 18 53
34 48 27 181 145 173 153 -2 2 7 16 21 31 26 28 126 225 126 248 0 8 4 14 8
14 4 0 6 9 4 20 -2 11 0 22 6 25 5 4 9 17 9 30 0 13 4 26 9 29 5 3 8 22 6 41
-1 19 2 35 7 35 4 0 8 37 8 83 0 78 2 84 24 97 14 7 34 10 45 7 12 -3 21 -1
21 4 0 5 15 9 33 9 19 0 37 3 41 8 4 4 11 7 14 7 13 1 57 17 90 31 30 14 38
25 32 49 -1 6 -3 16 -3 23 0 7 -6 11 -12 8 -16 -6 -41 11 -32 21 5 4 12 1 17
-7 8 -12 10 -9 11 13 1 15 2 42 3 60 1 17 -3 55 -9 82 -14 60 -64 175 -77 175
-5 0 -7 4 -4 9 3 4 -8 29 -24 55 -17 26 -30 51 -30 56 0 6 -4 10 -9 10 -6 0
-9 9 -8 19 0 11 5 17 9 15 4 -3 8 0 8 6 0 6 5 8 10 5 6 -3 10 -2 10 4 0 6 23
17 50 25 60 18 109 50 106 71 -1 8 -14 28 -29 45 -28 31 -29 54 -2 44 8 -4 12
-11 8 -17 -4 -6 -1 -7 8 -1 21 13 32 12 49 -6 8 -9 35 -31 60 -50 25 -19 57
-47 72 -62 14 -16 30 -28 35 -28 4 -1 22 -18 38 -39 17 -21 34 -36 39 -33 5 3
7 -2 3 -11 -4 -11 -1 -17 8 -17 8 0 15 -3 15 -7 0 -5 16 -25 35 -45 19 -20 35
-40 35 -45 0 -5 8 -16 18 -25 9 -8 27 -29 39 -44 12 -16 31 -40 42 -53 12 -13
21 -28 21 -32 0 -4 6 -14 13 -21 24 -26 77 -106 77 -117 0 -6 3 -11 8 -11 4 0
12 -10 18 -23 34 -69 70 -133 79 -139 6 -4 7 -8 3 -8 -3 0 11 -36 33 -80 21
-44 39 -86 39 -94 0 -7 3 -16 7 -19 11 -11 42 -107 35 -107 -4 0 -2 -4 4 -8 5
-4 18 -38 29 -77 10 -38 20 -74 24 -80 3 -5 6 -19 6 -30 1 -11 4 -27 7 -35 8
-20 20 -70 24 -95 1 -11 8 -47 14 -80 7 -33 13 -87 14 -120 1 -33 5 -66 9 -72
5 -7 4 -13 0 -13 -10 0 -10 -41 0 -56 9 -15 7 -294 -2 -294 -4 0 -8 -24 -8
-52 -2 -71 -6 -108 -14 -108 -3 0 -4 -11 -1 -25 2 -14 0 -25 -5 -25 -6 0 -9
-15 -9 -32 1 -18 -5 -53 -14 -78 -9 -25 -15 -52 -15 -60 1 -8 -5 -33 -13 -55
-8 -22 -15 -52 -17 -66 -1 -15 -5 -32 -9 -38 -4 -6 -9 -20 -12 -31 -9 -45 -13
-56 -22 -80 -5 -14 -10 -28 -11 -32 -1 -5 -10 -24 -21 -44 -26 -45 -20 -65 35
-126 23 -26 50 -63 59 -82 9 -19 21 -38 27 -41 12 -8 41 14 34 25 -3 4 1 10 9
13 8 3 20 23 27 44 6 21 19 54 27 73 9 19 15 38 14 43 -1 4 3 7 8 7 5 0 9 3 8
8 -3 16 15 62 25 62 6 0 8 3 4 6 -3 3 1 25 10 47 8 23 16 49 17 57 1 8 8 35
16 60 16 52 14 45 24 90 5 19 12 40 15 45 4 6 7 26 7 45 -1 19 3 38 7 41 5 3
9 20 9 37 1 18 4 32 7 32 4 0 7 27 7 61 1 33 5 64 10 67 21 16 20 492 -2 616
-4 23 -8 57 -10 76 -7 71 -13 111 -21 123 -4 7 -8 19 -8 27 -1 30 -27 135 -37
148 -6 6 -8 12 -5 12 6 0 -9 64 -23 95 -5 11 -16 47 -26 80 -9 33 -20 65 -24
70 -6 9 -43 104 -45 115 -1 3 -18 40 -38 83 -20 42 -37 82 -37 87 0 6 -3 10
-8 10 -4 0 -13 12 -19 28 -12 25 -111 184 -130 207 -4 6 -19 27 -33 47 -14 21
-28 38 -32 38 -5 0 -8 6 -8 13 0 8 -9 22 -20 32 -11 10 -20 22 -20 26 0 5 -18
26 -41 49 -22 22 -38 40 -35 40 3 0 -14 20 -38 44 -24 25 -41 47 -38 50 3 4
-2 6 -12 6 -9 0 -14 5 -11 10 3 6 -1 10 -9 10 -9 0 -16 5 -16 11 0 6 -20 30
-45 53 -25 24 -45 41 -45 38 0 -3 -12 9 -26 26 -15 18 -31 32 -35 32 -12 0
-58 48 -51 54 3 3 0 6 -6 6 -13 0 -146 97 -150 111 -2 5 -8 9 -13 9 -6 0 -52
29 -103 64 -52 36 -97 62 -100 59 -3 -4 -6 -1 -6 5 0 7 -4 12 -9 12 -6 0 -38
17 -73 37 -35 21 -65 38 -68 38 -15 3 -106 51 -112 59 -4 6 -8 7 -8 3 0 -5
-12 -2 -27 6 -70 37 -133 61 -150 58 -7 -1 -13 2 -13 8 0 9 -57 27 -72 23 -5
-1 -8 3 -8 8 0 5 -3 9 -7 9 -16 -4 -93 14 -93 21 0 6 -48 19 -130 37 -42 9
-138 24 -162 25 -16 1 -28 4 -28 8 0 3 -19 7 -42 8 -24 1 -65 5 -93 9 -27 4
-54 6 -59 5 -4 -2 -13 2 -20 7 -13 11 -409 14 -420 4z m-32 -184 c8 -9 8 -10
-3 -4 -11 6 -13 4 -8 -8 3 -10 2 -17 -2 -17 -18 0 -115 -156 -106 -170 3 -5 0
-10 -6 -12 -6 -2 -11 -16 -11 -31 0 -15 -6 -28 -12 -29 -33 -4 -45 -1 -84 19
-61 33 -160 34 -199 3 -15 -12 -27 -24 -26 -26 2 -2 10 -18 18 -34 11 -22 23
-30 43 -31 15 0 41 -2 57 -5 17 -2 38 -4 47 -5 10 0 20 -4 23 -10 4 -5 14 -9
24 -9 22 0 55 -35 46 -49 -3 -6 -26 -11 -50 -11 -24 0 -47 -5 -50 -10 -4 -6
-11 -8 -16 -5 -5 4 -9 1 -9 -4 0 -6 -5 -11 -11 -11 -13 0 -139 -126 -139 -138
0 -5 -10 -19 -22 -32 -13 -14 -22 -26 -20 -27 1 -2 -5 -17 -13 -33 -8 -16 -15
-31 -14 -32 0 -2 -5 -16 -11 -33 -13 -32 -15 -42 -32 -125 -16 -80 -16 -216 0
-285 8 -33 15 -68 16 -77 1 -10 5 -21 9 -24 4 -4 7 -16 7 -26 0 -10 4 -26 9
-36 5 -9 21 -42 36 -72 14 -30 32 -64 38 -75 14 -23 78 -108 88 -115 10 -8 39
-68 39 -82 0 -7 13 -38 28 -68 48 -92 147 -161 247 -172 17 -1 38 -12 48 -23
18 -19 18 -20 -10 -25 -15 -3 -79 -5 -140 -4 -62 0 -113 -2 -113 -6 0 -4 -10
-6 -22 -5 -13 1 -34 -2 -48 -8 -14 -5 -37 -9 -52 -8 -16 1 -28 -4 -28 -10 0
-6 -9 -9 -20 -6 -11 3 -23 1 -26 -4 -3 -5 -14 -9 -25 -9 -10 0 -19 -4 -19 -9
0 -6 -9 -8 -20 -6 -11 2 -20 0 -20 -6 0 -5 -6 -9 -14 -9 -19 0 -96 -42 -96
-52 0 -4 -6 -8 -14 -8 -7 0 -19 -7 -26 -15 -7 -9 -15 -13 -18 -11 -2 3 -21 -5
-41 -18 -20 -12 -51 -28 -68 -35 -18 -8 -33 -17 -33 -21 0 -4 -8 -10 -17 -14
-19 -6 -49 -24 -69 -41 -6 -5 -22 -17 -34 -25 -12 -8 -31 -22 -41 -32 -11 -9
-39 -31 -62 -50 -43 -34 -179 -168 -171 -168 4 0 -3 -10 -32 -43 -5 -7 -14
-21 -19 -32 -11 -25 -13 -155 -3 -155 4 0 8 -9 8 -20 0 -27 93 -120 120 -120
11 0 20 -4 20 -8 0 -10 117 -9 127 1 3 4 14 7 22 7 9 0 28 11 43 25 15 14 30
24 32 23 2 -2 15 11 28 27 73 94 220 220 245 211 8 -3 11 -1 8 4 -3 6 2 10 12
10 11 0 24 5 31 12 9 9 12 9 12 0 0 -19 52 -14 101 10 24 12 47 22 51 23 3 0
10 3 14 8 13 12 63 8 59 -5 -9 -37 -18 -58 -25 -58 -5 0 -7 -8 -6 -17 2 -10
-1 -25 -5 -33 -6 -13 -19 -43 -24 -60 -11 -35 -29 -98 -31 -110 -2 -8 -8 -37
-14 -65 -13 -56 -20 -352 -9 -375 16 -37 28 -67 34 -87 4 -13 10 -23 14 -23 9
0 8 -90 0 -105 -6 -9 -21 -62 -23 -77 -1 -4 -7 -13 -13 -19 -7 -7 -13 -17 -13
-22 0 -5 -9 -21 -20 -37 -11 -15 -17 -30 -13 -34 3 -3 1 -6 -5 -6 -7 0 -12 -6
-12 -14 0 -7 -17 -21 -37 -30 -21 -9 -46 -22 -56 -27 -11 -6 -21 -8 -24 -6 -2
3 -25 0 -51 -7 -26 -7 -103 -11 -172 -11 -82 1 -134 -2 -150 -11 -30 -14 -81
-70 -73 -78 4 -3 2 -6 -4 -6 -9 0 -28 -54 -24 -72 0 -5 -4 -8 -9 -8 -6 0 -10
-8 -10 -18 0 -10 -3 -22 -7 -26 -5 -4 -8 -11 -9 -14 -1 -10 -13 -41 -30 -80
-23 -53 -18 -136 9 -165 28 -30 59 -47 88 -47 30 0 96 33 138 69 31 26 39 28
90 24 133 -10 361 -3 401 14 8 3 17 7 20 8 3 0 32 9 65 19 33 10 61 17 63 17
1 -1 16 6 32 14 17 9 30 12 30 8 0 -5 5 -1 10 7 5 8 13 15 17 16 11 1 67 27
73 34 3 3 25 18 50 32 25 14 66 47 93 72 26 26 47 43 47 39 1 -5 8 4 16 20 8
15 19 27 24 27 6 0 10 6 10 13 0 7 9 20 20 30 11 9 20 13 20 8 0 -5 9 -13 20
-16 11 -3 20 -14 20 -22 0 -9 2 -14 5 -11 3 3 38 -25 77 -63 39 -38 80 -69 90
-69 22 0 72 -48 108 -102 14 -21 28 -38 32 -38 4 0 5 -7 2 -15 -4 -8 -2 -15 4
-15 5 0 17 -15 26 -32 9 -18 28 -51 42 -73 14 -22 27 -48 31 -57 3 -10 10 -18
16 -18 6 0 8 -3 4 -6 -3 -3 5 -23 18 -44 13 -21 27 -50 31 -64 3 -14 10 -26
14 -26 5 0 7 -8 6 -17 -3 -17 -52 -18 -859 -19 -487 -1 -857 2 -857 7 0 5 -7
9 -16 9 -8 0 -21 6 -29 13 -26 24 -55 47 -55 42 0 -9 -85 55 -136 102 -13 12
-24 20 -24 18 0 -4 -61 52 -160 147 -39 37 -70 73 -70 79 0 7 -3 10 -6 6 -5
-5 -22 12 -92 94 -24 27 -47 57 -62 79 -8 12 -20 28 -26 34 -19 20 -132 191
-145 219 -7 15 -16 27 -21 27 -4 0 -8 9 -8 20 0 11 -4 20 -9 20 -5 0 -12 13
-16 30 -4 17 -11 30 -16 30 -6 0 -8 4 -5 9 4 5 2 11 -4 13 -6 2 -12 13 -14 25
-3 11 -12 35 -20 52 -9 16 -16 37 -16 46 0 8 -4 15 -10 15 -5 0 -10 9 -10 20
0 11 -4 20 -10 20 -5 0 -9 3 -8 8 1 4 -5 27 -12 52 -8 25 -14 48 -14 52 -1 3
-4 10 -8 14 -5 4 -8 18 -8 31 0 13 -5 23 -11 23 -5 0 -7 5 -4 10 4 6 1 18 -6
26 -6 8 -9 17 -6 21 4 3 2 13 -3 23 -10 19 -20 59 -27 110 -2 19 -7 42 -10 50
-7 19 -11 48 -17 125 -2 33 -8 73 -12 89 -9 39 -9 414 1 451 4 17 9 55 10 85
2 30 6 71 10 90 3 19 9 55 12 80 3 25 10 51 15 58 6 7 8 15 5 19 -3 3 0 18 8
33 8 15 12 30 9 33 -3 3 3 22 12 43 9 22 16 47 15 57 -1 9 3 17 10 17 7 0 10
3 7 6 -4 3 0 20 7 39 8 18 11 35 8 39 -4 3 -1 6 6 6 7 0 10 4 6 9 -3 5 -1 12
4 15 8 5 25 63 22 79 0 4 3 7 9 7 5 0 10 6 10 13 0 17 90 201 102 208 5 3 10
10 10 15 2 23 11 44 19 44 5 0 9 4 9 10 0 19 239 349 278 384 12 10 19 23 16
27 -3 5 -1 9 4 9 5 0 21 11 36 25 15 14 25 25 22 25 -8 0 22 29 58 58 16 12
25 22 21 22 -5 0 13 16 38 36 26 20 47 41 47 47 0 6 3 7 6 4 4 -4 15 3 25 15
11 11 19 18 19 14 0 -4 11 4 24 18 13 15 27 26 32 26 5 0 21 11 36 25 15 14
32 25 38 25 5 0 10 5 10 10 0 6 7 10 15 10 9 0 18 7 21 15 4 8 10 12 15 9 5
-3 9 0 9 5 0 6 5 11 12 11 6 0 26 11 44 25 18 14 36 25 39 25 4 0 33 16 66 35
32 19 59 32 59 28 0 -3 8 1 18 10 10 10 22 14 25 10 4 -3 7 -1 7 5 0 6 10 14
23 17 12 4 49 20 82 35 73 34 98 44 108 42 4 -1 7 2 7 8 0 6 3 9 8 8 4 -1 25
6 46 15 21 10 56 20 78 23 21 4 38 11 38 16 0 6 6 8 14 5 8 -3 22 0 32 8 10 7
24 11 31 8 7 -3 21 -2 31 3 9 4 19 8 22 9 16 6 49 19 77 31 18 8 35 14 39 14
3 -1 12 7 20 17 7 10 14 14 14 10 0 -4 14 6 30 23 17 17 34 29 39 26 5 -3 11
0 14 8 6 16 54 13 71 -5z m130 -136 c-13 -14 -17 -14 -26 -2 -8 12 -9 12 -5
-1 6 -22 -12 -52 -29 -46 -7 3 -13 2 -13 -2 3 -21 -3 -31 -16 -26 -8 4 -15 1
-15 -6 0 -6 -5 -8 -10 -5 -12 8 -9 35 5 51 6 7 13 10 18 7 4 -2 7 3 7 12 0 11
5 15 15 11 8 -3 14 0 12 7 -1 7 8 11 26 10 15 -1 27 2 27 8 0 6 5 7 10 4 6 -4
4 -12 -6 -22z m1521 -1112 c3 -5 0 -13 -6 -17 -7 -4 -9 -3 -5 4 3 5 0 13 -6
15 -9 4 -10 6 -1 6 6 1 14 -3 18 -8z m40 -1 c3 -5 12 -7 19 -4 8 3 17 1 21 -5
4 -7 0 -8 -11 -4 -11 4 -15 2 -11 -4 11 -17 -16 -34 -33 -21 -13 8 -12 9 2 5
26 -9 29 4 6 24 -11 11 -16 19 -10 19 6 0 13 -4 17 -10z m-1157 -1340 c-12
-18 -68 -26 -68 -10 0 6 5 8 10 5 6 -3 10 -1 10 4 0 6 -4 11 -8 11 -7 0 -8 23
-3 62 1 4 16 -7 35 -24 27 -25 32 -35 24 -48z m22 -9 c0 -6 -5 -13 -10 -16 -6
-4 -7 -11 -4 -17 4 -7 2 -8 -5 -4 -8 6 -9 12 -2 20 6 7 8 16 4 19 -3 4 -1 7 5
7 7 0 12 -4 12 -9z m147 -1120 c12 -14 22 -32 23 -38 0 -7 4 -13 10 -13 5 0
23 -28 40 -62 31 -64 40 -128 18 -128 -6 0 -3 -7 8 -15 14 -11 15 -14 4 -15
-13 0 -13 -1 0 -10 8 -5 12 -10 8 -10 -4 0 -1 -15 7 -34 8 -18 11 -36 8 -40
-4 -3 -1 -6 5 -6 7 0 12 -7 12 -16 0 -8 4 -13 9 -10 5 3 9 0 8 -7 -1 -30 4
-48 11 -43 4 2 9 -4 10 -15 1 -10 2 -26 3 -34 1 -8 10 -15 20 -15 12 0 16 -6
12 -20 -3 -12 0 -20 7 -20 7 0 9 -8 5 -21 -5 -13 -3 -19 3 -15 5 3 16 -2 23
-11 10 -12 10 -14 2 -9 -7 4 -13 3 -13 -1 0 -5 6 -15 13 -22 6 -8 7 -11 1 -8
-6 3 -11 0 -11 -8 0 -8 3 -13 5 -10 6 5 33 -60 34 -82 1 -7 4 -12 7 -11 20 2
31 -3 26 -12 -3 -5 0 -10 7 -10 8 0 20 -9 28 -20 8 -11 20 -20 27 -20 7 0 13
-4 13 -10 0 -5 7 -10 15 -10 8 0 15 -4 15 -10 0 -5 0 -13 0 -17 0 -11 -23 -11
-37 0 -9 6 -13 5 -13 -3 0 -10 -3 -10 -15 0 -8 6 -19 9 -25 5 -5 -3 -10 -2
-10 3 0 6 -11 13 -25 16 -14 4 -23 11 -20 16 3 6 2 10 -2 10 -18 0 -73 54 -73
71 0 10 -4 21 -10 24 -5 3 -10 21 -10 40 0 19 -4 36 -9 40 -6 3 -8 14 -6 25 2
11 0 22 -6 25 -5 4 -9 19 -9 35 0 16 -5 32 -10 35 -6 4 -8 10 -5 15 3 5 1 19
-4 32 -19 47 -24 63 -23 71 1 4 -2 7 -7 7 -8 0 -25 56 -22 73 0 4 -3 7 -8 7
-5 0 -11 9 -14 20 -3 11 -6 24 -7 28 -1 4 -11 19 -22 35 -11 15 -16 27 -11 27
4 0 3 4 -2 8 -6 4 -16 18 -23 32 -17 35 -35 64 -46 71 -5 4 -6 14 -3 24 4 9 3
14 -2 11 -5 -3 -14 1 -21 9 -7 8 -9 15 -4 15 4 0 3 5 -4 12 -14 14 -16 42 -3
34 5 -3 12 1 15 10 8 21 45 9 73 -25z m-1156 -102 c8 -13 1 -39 -9 -37 -14 2
-72 -24 -72 -33 0 -5 -5 -9 -11 -9 -5 0 -36 -12 -67 -27 -31 -15 -69 -27 -84
-27 -14 -1 -30 -4 -34 -8 -4 -5 -61 -8 -126 -8 -67 0 -117 -4 -114 -9 3 -5 -1
-14 -9 -21 -7 -6 -11 -18 -8 -26 3 -8 0 -14 -6 -14 -6 0 -8 -7 -5 -15 5 -13
10 -13 36 1 33 17 114 19 208 6 30 -4 82 -3 115 1 33 5 81 8 108 8 26 0 47 4
47 10 0 6 4 8 9 4 5 -3 12 -1 16 5 3 5 17 10 31 10 13 0 32 4 42 9 33 18 112
38 112 29 0 -5 4 -6 10 -3 6 3 9 -4 8 -19 -1 -13 -5 -24 -8 -23 -3 1 -25 -7
-50 -17 -51 -22 -45 -20 -85 -31 -16 -4 -34 -10 -40 -13 -5 -4 -16 -7 -25 -8
-124 -17 -265 -22 -293 -11 -9 3 -17 3 -17 -1 0 -4 -27 -7 -60 -7 -33 0 -60 3
-60 7 0 15 -97 -27 -134 -59 -36 -30 -53 -37 -73 -30 -14 4 -8 62 7 74 8 7 11
13 7 13 -4 0 -2 10 5 23 12 22 18 42 20 65 1 6 5 12 10 12 5 0 6 4 3 10 -3 5
2 21 11 35 9 14 13 25 9 25 -5 0 1 8 13 18 17 15 42 19 152 21 83 1 147 7 174
16 23 8 51 16 62 18 10 1 26 7 34 12 8 5 20 10 25 10 29 3 64 18 59 26 -3 6 6
8 22 5 15 -3 31 -11 35 -17z m1033 -225 c3 -8 2 -12 -4 -9 -6 3 -10 10 -10 16
0 14 7 11 14 -7z m43 -54 c-1 -3 4 -15 11 -27 8 -15 9 -23 2 -23 -5 0 -10 7
-10 16 0 9 -5 12 -12 8 -6 -4 -8 -3 -4 4 3 6 0 17 -8 25 -18 18 -9 31 9 14 7
-7 13 -14 12 -17z m54 -80 c6 0 8 -4 5 -8 -3 -5 4 -19 15 -30 11 -12 16 -22
12 -22 -4 0 -1 -6 8 -13 9 -7 17 -16 19 -22 2 -5 10 -26 18 -45 9 -19 15 -38
14 -42 -1 -5 3 -8 9 -8 6 0 9 -9 6 -19 -3 -14 -1 -18 10 -14 7 3 13 2 12 -3
-1 -5 3 -22 9 -37 17 -42 15 -54 -10 -53 -14 1 -22 7 -20 15 2 8 -3 11 -12 8
-10 -4 -20 2 -27 15 -7 13 -7 18 -1 14 6 -3 13 -2 17 4 3 5 -2 10 -12 10 -15
0 -16 2 -3 10 12 8 10 10 -10 11 -23 0 -23 1 -5 9 18 8 18 9 -5 9 -20 1 -22 3
-10 11 12 8 12 10 1 10 -8 0 -11 7 -8 20 3 12 0 20 -7 20 -7 0 -12 11 -12 24
0 15 4 22 11 19 5 -4 1 4 -10 17 -11 13 -14 20 -6 15 10 -6 12 -4 7 4 -5 7
-15 10 -23 6 -13 -5 -14 -3 -3 11 12 13 11 17 -1 25 -8 5 -10 9 -5 9 5 0 3 7
-4 15 -7 8 -8 20 -4 27 7 10 9 9 12 -4 2 -10 8 -18 13 -18z m1949 -56 c0 -19
-2 -34 -4 -34 -2 0 -13 -3 -23 -7 -17 -6 -17 -6 0 14 18 21 18 22 0 33 -17 11
-17 11 1 6 15 -5 17 -2 13 14 -3 11 -1 18 4 14 5 -3 9 -21 9 -40z m-1800 -284
c0 -5 -2 -10 -4 -10 -3 0 -8 5 -11 10 -3 6 -1 10 4 10 6 0 11 -4 11 -10z"/>
<path d="M4068 1743 c7 -3 16 -2 19 1 4 3 -2 6 -13 5 -11 0 -14 -3 -6 -6z"/>
<path d="M4155 1570 c-3 -5 -1 -10 4 -10 6 0 11 5 11 10 0 6 -2 10 -4 10 -3 0
-8 -4 -11 -10z"/>
</g>
</svg>
